PathFileType	4	(X/Y/Z)	E:/New_biomech_experiments/MICROGRAVITY MOCAP/Session 2024-06-22/Neeraj_FullAction_pp_22_06_24_t02 (1).trc	
DataRate	CameraRate	NumFrames	NumMarkers	Units	OrigDataRate	OrigDataStartFrame	OrigNumFrames	
120.00	120.00	12	19	m	120.00	1895	7579	
Frame#	Time	RSHO			MarkerSet_RBAK			MarkerSet_LBHD			MarkerSet_RUPA			MarkerSet_PRSHO			MarkerSet_RELB			MarkerSet_CLAV			MarkerSet_RFHD			MarkerSet_LFHD			MarkerSet_C7			MarkerSet_RWRB			MarkerSet_RFRM			MarkerSet_RWRA			MarkerSet_MRELB			MarkerSet_DIA			MarkerSet_STRN			MarkerSet_ARSHO			MarkerSet_RBHD			MarkerSet_T10			
		X1	Y1	Z1	X2	Y2	Z2	X3	Y3	Z3	X4	Y4	Z4	X5	Y5	Z5	X6	Y6	Z6	X7	Y7	Z7	X8	Y8	Z8	X9	Y9	Z9	X10	Y10	Z10	X11	Y11	Z11	X12	Y12	Z12	X13	Y13	Z13	X14	Y14	Z14	X15	Y15	Z15	X16	Y16	Z16	X17	Y17	Z17	X18	Y18	Z18	X19	Y19	Z19	

1895	15.783	-0.03888	1.53539	0.12740	-0.11884	1.36563	0.00315	-0.03164	1.71910	-0.11019	-0.02810	1.38213	0.25644	-0.11089	1.46773	0.07735	-0.03731	1.28649	0.35126	0.10735	1.48741	-0.06328	0.06687	1.80726	0.04089	0.08367	1.82720	-0.05993	-0.09305	1.53325	-0.06719	-0.05673	1.06039	0.54056	-0.02420	1.19342	0.45016	0.04120	1.06387	0.52046	0.00200	1.20043	0.27421	0.08379	1.17284	0.10833	0.14448	1.32435	-0.05337	0.06776	1.48141	0.10219	-0.05845	1.71460	-0.00784	-0.10972	1.33955	-0.06130 
1896	15.792	-0.03885	1.53540	0.12744	-0.11885	1.36563	0.00319	-0.03162	1.71907	-0.11014	-0.02814	1.38214	0.25644	-0.11088	1.46774	0.07740	-0.03729	1.28650	0.35128	0.10734	1.48744	-0.06326	0.06698	1.80724	0.04089	0.08372	1.82719	-0.05997	-0.09306	1.53321	-0.06712	-0.05672	1.06041	0.54061	-0.02421	1.19343	0.45020	0.04125	1.06366	0.52042	0.00200	1.20046	0.27429	0.08379	1.17282	0.10834	0.14446	1.32434	-0.05336	0.06776	1.48143	0.10221	-0.05841	1.71461	-0.00783	-0.10975	1.33957	-0.06123 
1897	15.800	-0.03863	1.53564	0.12753	-0.11883	1.36564	0.00322	-0.03160	1.71911	-0.11011	-0.02810	1.38215	0.25644	-0.11088	1.46773	0.07741	-0.03730	1.28650	0.35133	0.10733	1.48743	-0.06324	0.06706	1.80724	0.04086	0.08377	1.82716	-0.05997	-0.09305	1.53322	-0.06709	-0.05673	1.06045	0.54067	-0.02420	1.19346	0.45023	0.04125	1.06369	0.52045	0.00204	1.20047	0.27435	0.08383	1.17282	0.10836	0.14446	1.32434	-0.05334	0.06775	1.48143	0.10225	-0.05834	1.71464	-0.00778	-0.10973	1.33960	-0.06121 
1898	15.808	-0.03860	1.53566	0.12757	-0.11884	1.36565	0.00328	-0.03160	1.71912	-0.11012	-0.02812	1.38216	0.25647	-0.11089	1.46774	0.07747	-0.03731	1.28650	0.35135	0.10730	1.48741	-0.06321	0.06713	1.80725	0.04085	0.08359	1.82697	-0.06017	-0.09307	1.53322	-0.06706	-0.05666	1.06045	0.54070	-0.02417	1.19345	0.45029	0.04125	1.06370	0.52049	0.00200	1.20046	0.27435	0.08381	1.17283	0.10839	0.14444	1.32433	-0.05332	0.06775	1.48145	0.10226	-0.05834	1.71468	-0.00779	-0.10973	1.33960	-0.06114 
1899	15.817	-0.03862	1.53565	0.12758	-0.11881	1.36563	0.00332	-0.03160	1.71913	-0.11008	-0.02815	1.38215	0.25651	-0.11089	1.46773	0.07748	-0.03729	1.28652	0.35140	0.10729	1.48740	-0.06318	0.06719	1.80724	0.04087	0.08384	1.82714	-0.05999	-0.09308	1.53322	-0.06702	-0.05665	1.06046	0.54077	-0.02418	1.19346	0.45031	0.04130	1.06374	0.52052	0.00195	1.20049	0.27434	0.08380	1.17283	0.10839	0.14442	1.32433	-0.05330	0.06772	1.48140	0.10228	-0.05826	1.71467	-0.00770	-0.10973	1.33960	-0.06112 
1900	15.825	-0.03884	1.53541	0.12754	-0.11883	1.36561	0.00336	-0.03158	1.71909	-0.11005	-0.02814	1.38219	0.25653	-0.11088	1.46774	0.07755	-0.03729	1.28654	0.35143	0.10727	1.48738	-0.06315	0.06723	1.80726	0.04085	0.08366	1.82693	-0.06022	-0.09308	1.53321	-0.06700	-0.05664	1.06048	0.54081	-0.02415	1.19348	0.45034	0.04129	1.06373	0.52058	0.00195	1.20045	0.27438	0.08382	1.17283	0.10842	0.14437	1.32430	-0.05328	0.06771	1.48139	0.10228	-0.05827	1.71472	-0.00769	-0.10973	1.33956	-0.06109 
1901	15.833	-0.03884	1.53542	0.12757	-0.11883	1.36563	0.00339	-0.03154	1.71912	-0.11003	-0.02815	1.38218	0.25659	-0.11088	1.46771	0.07753	-0.03726	1.28654	0.35147	0.10728	1.48736	-0.06313	0.06729	1.80726	0.04085	0.08413	1.82712	-0.05981	-0.09309	1.53323	-0.06696	-0.05678	1.06105	0.54056	-0.02413	1.19349	0.45039	0.04129	1.06374	0.52062	0.00197	1.20048	0.27440	0.08381	1.17283	0.10843	0.14438	1.32429	-0.05322	0.06769	1.48139	0.10231	-0.05790	1.71473	-0.00736	-0.10975	1.33955	-0.06103 
1902	15.842	-0.03884	1.53541	0.12762	-0.11886	1.36562	0.00340	-0.03155	1.71912	-0.11002	-0.02817	1.38217	0.25662	-0.11088	1.46772	0.07760	-0.03723	1.28655	0.35153	0.10725	1.48736	-0.06310	0.06731	1.80725	0.04086	0.08371	1.82690	-0.06025	-0.09310	1.53322	-0.06693	-0.05661	1.06052	0.54093	-0.02413	1.19353	0.45043	0.04132	1.06373	0.52065	0.00192	1.20048	0.27443	0.08380	1.17280	0.10849	0.14435	1.32426	-0.05320	0.06770	1.48136	0.10235	-0.05813	1.71486	-0.00776	-0.10975	1.33957	-0.06097 
1903	15.850	-0.03883	1.53540	0.12765	-0.11886	1.36559	0.00344	-0.03152	1.71912	-0.10998	-0.02812	1.38214	0.25663	-0.11088	1.46772	0.07763	-0.03721	1.28655	0.35154	0.10724	1.48735	-0.06309	0.06732	1.80725	0.04087	0.08415	1.82713	-0.05980	-0.09309	1.53321	-0.06692	-0.05662	1.06055	0.54099	-0.02408	1.19352	0.45049	0.04133	1.06376	0.52073	0.00185	1.20049	0.27443	0.08383	1.17282	0.10850	0.14433	1.32425	-0.05320	0.06772	1.48134	0.10236	-0.05812	1.71484	-0.00772	-0.10410	1.33552	-0.06113 
1904	15.858	-0.03857	1.53563	0.12776	-0.11886	1.36559	0.00345	-0.03152	1.71913	-0.10998	-0.02812	1.38212	0.25665	-0.11088	1.46772	0.07765	-0.03723	1.28656	0.35158	0.10724	1.48735	-0.06307	0.06733	1.80724	0.04090	0.08400	1.82709	-0.05999	-0.09311	1.53322	-0.06686	-0.05663	1.06057	0.54104	-0.02411	1.19354	0.45050	0.04134	1.06379	0.52077	0.00187	1.20045	0.27450	0.08380	1.17282	0.10852	0.14432	1.32423	-0.05317	0.06768	1.48131	0.10236	-0.05813	1.71483	-0.00771	-0.10407	1.33553	-0.06109 
1905	15.867	-0.03887	1.53540	0.12771	-0.11885	1.36558	0.00348	-0.03153	1.71914	-0.10994	-0.02812	1.38212	0.25667	-0.11090	1.46772	0.07770	-0.03706	1.28750	0.35412	0.10722	1.48733	-0.06302	0.06735	1.80725	0.04089	0.08421	1.82713	-0.05975	-0.09310	1.53321	-0.06683	-0.05662	1.06059	0.54111	-0.02410	1.19355	0.45056	0.04132	1.06380	0.52081	0.00191	1.20045	0.27457	0.08382	1.17279	0.10856	0.14429	1.32422	-0.05315	0.06767	1.48128	0.10240	-0.05566	1.71159	-0.00776	-0.10399	1.33549	-0.06103 
1906	15.875	-0.03860	1.53561	0.12779	-0.11886	1.36557	0.00352	-0.03151	1.71914	-0.10990	-0.02816	1.38213	0.25668	-0.11090	1.46769	0.07772	-0.03705	1.28752	0.35416	0.10722	1.48732	-0.06300	0.06738	1.80727	0.04094	0.08418	1.82711	-0.05975	-0.09312	1.53320	-0.06679	-0.05661	1.06061	0.54115	-0.02411	1.19356	0.45060	0.04132	1.06381	0.52087	0.00191	1.20045	0.27458	0.08378	1.17278	0.10856	0.14427	1.32422	-0.05310	0.06765	1.48129	0.10244	-0.05585	1.71255	-0.00792	-0.10401	1.33553	-0.06103 
